<svg width="175" height="188" viewBox="0 0 175 188" fill="none" xmlns="http://www.w3.org/2000/svg">
<g style="mix-blend-mode:hard-light" opacity="0.2">
<path d="M109.879 22.1748L93.1256 0.93433C92.149 -0.311443 90.2582 -0.311443 89.2816 0.93433L72.5278 22.1748C71.2632 23.7694 72.4151 26.1114 74.4561 26.1114H82.7078C82.9833 31.4807 83.8347 40.961 86.4767 48.2986C86.9651 49.6441 88.2423 50.5286 89.6822 50.5286H92.725C94.1524 50.5286 95.4421 49.6441 95.9305 48.2986C98.5725 40.961 99.4239 31.4807 99.6994 26.1114H107.951C109.992 26.1114 111.132 23.7694 109.879 22.1748Z" fill="#6F4A02"/>
</g>
<g style="mix-blend-mode:hard-light" opacity="0.2">
<path d="M173.925 131.886L139.46 89.8491C137.45 87.3836 133.561 87.3836 131.552 89.8491L97.0858 131.886C94.4842 135.041 96.854 139.677 101.053 139.677H118.028C118.595 150.303 120.346 169.065 125.782 183.587C126.786 186.25 129.414 188 132.376 188H138.635C141.572 188 144.225 186.25 145.23 183.587C150.665 169.065 152.417 150.303 152.983 139.677H169.959C174.157 139.677 176.501 135.041 173.925 131.886Z" fill="#6F4A02"/>
</g>
<g style="mix-blend-mode:hard-light" opacity="0.2">
<path d="M71.1159 144.231L42.758 111.442C41.1048 109.519 37.9045 109.519 36.2513 111.442L7.89342 144.231C5.7528 146.692 7.70267 150.308 11.1573 150.308H25.1243C25.5906 158.596 27.0318 173.231 31.5038 184.558C32.3304 186.635 34.4922 188 36.9295 188H42.0797C44.4959 188 46.6789 186.635 47.5055 184.558C51.9775 173.231 53.4187 158.596 53.8849 150.308H67.852C71.3066 150.308 73.2353 146.692 71.1159 144.231Z" fill="#6F4A02"/>
</g>
<g style="mix-blend-mode:hard-light" opacity="0.2">
<path d="M37.8794 47.1748L21.1256 25.9343C20.149 24.6886 18.2582 24.6886 17.2816 25.9343L0.527827 47.1748C-0.736841 48.7694 0.415134 51.1114 2.45613 51.1114H10.7078C10.9833 56.4807 11.8347 65.961 14.4767 73.2986C14.9651 74.6441 16.2423 75.5286 17.6822 75.5286H20.725C22.1524 75.5286 23.4421 74.6441 23.9305 73.2986C26.5725 65.961 27.4239 56.4807 27.6994 51.1114H35.9511C37.9921 51.1114 39.1315 48.7694 37.8794 47.1748Z" fill="#6F4A02"/>
</g>
<g style="mix-blend-mode:hard-light" opacity="0.2">
<path d="M173.879 32.1748L157.126 10.9343C156.149 9.68856 154.258 9.68856 153.282 10.9343L136.528 32.1748C135.263 33.7694 136.415 36.1114 138.456 36.1114H146.708C146.983 41.4807 147.835 50.961 150.477 58.2986C150.965 59.6441 152.242 60.5286 153.682 60.5286H156.725C158.152 60.5286 159.442 59.6441 159.93 58.2986C162.572 50.961 163.424 41.4807 163.699 36.1114H171.951C173.992 36.1114 175.132 33.7694 173.879 32.1748Z" fill="#6F4A02"/>
</g>
</svg>
