<svg width="158" height="171" viewBox="0 0 158 171" fill="none" xmlns="http://www.w3.org/2000/svg">
<g style="mix-blend-mode:hard-light" opacity="0.2">
<path d="M100.879 30.1748L84.1256 8.93433C83.149 7.68856 81.2582 7.68856 80.2816 8.93433L63.5278 30.1748C62.2632 31.7694 63.4151 34.1114 65.4561 34.1114H73.7078C73.9833 39.4807 74.8347 48.961 77.4767 56.2986C77.9651 57.6441 79.2423 58.5286 80.6822 58.5286H83.725C85.1524 58.5286 86.4421 57.6441 86.9305 56.2986C89.5725 48.961 90.4239 39.4807 90.6994 34.1114H98.9511C100.992 34.1114 102.132 31.7694 100.879 30.1748Z" fill="#6F4A02"/>
</g>
<g style="mix-blend-mode:hard-light" opacity="0.2">
<path d="M150.116 118.252L121.758 78.7382C120.105 76.4206 116.904 76.4206 115.251 78.7382L86.8934 118.252C84.7528 121.219 86.7027 125.576 90.1573 125.576H104.124C104.591 135.565 106.032 153.201 110.504 166.852C111.33 169.355 113.492 171 115.93 171H121.08C123.496 171 125.679 169.355 126.505 166.852C130.977 153.201 132.419 135.565 132.885 125.576H146.852C150.307 125.576 152.235 121.219 150.116 118.252Z" fill="#6F4A02"/>
</g>
<g style="mix-blend-mode:hard-light" opacity="0.2">
<path d="M62.3063 133.964L40.0562 106.22C38.7592 104.593 36.2481 104.593 34.951 106.22L12.701 133.964C11.0214 136.047 12.5513 139.107 15.2619 139.107H26.2206C26.5865 146.12 27.7173 158.503 31.2261 168.087C31.8746 169.845 33.5708 171 35.4832 171H39.5241C41.4198 171 43.1327 169.845 43.7812 168.087C47.29 158.503 48.4208 146.12 48.7866 139.107H59.7454C62.456 139.107 63.9692 136.047 62.3063 133.964Z" fill="#6F4A02"/>
</g>
<g style="mix-blend-mode:hard-light" opacity="0.2">
<path d="M37.8794 47.1748L21.1256 25.9343C20.149 24.6886 18.2582 24.6886 17.2816 25.9343L0.527827 47.1748C-0.736841 48.7694 0.415134 51.1114 2.45613 51.1114H10.7078C10.9833 56.4807 11.8347 65.961 14.4767 73.2986C14.9651 74.6441 16.2423 75.5286 17.6822 75.5286H20.725C22.1524 75.5286 23.4421 74.6441 23.9305 73.2986C26.5725 65.961 27.4239 56.4807 27.6994 51.1114H35.9511C37.9921 51.1114 39.1315 48.7694 37.8794 47.1748Z" fill="#6F4A02"/>
</g>
<g style="mix-blend-mode:hard-light" opacity="0.2">
<path d="M156.879 22.1748L140.126 0.93433C139.149 -0.311443 137.258 -0.311443 136.282 0.93433L119.528 22.1748C118.263 23.7694 119.415 26.1114 121.456 26.1114H129.708C129.983 31.4807 130.835 40.961 133.477 48.2986C133.965 49.6441 135.242 50.5286 136.682 50.5286H139.725C141.152 50.5286 142.442 49.6441 142.93 48.2986C145.572 40.961 146.424 31.4807 146.699 26.1114H154.951C156.992 26.1114 158.132 23.7694 156.879 22.1748Z" fill="#6F4A02"/>
</g>
</svg>
